<svg width="107" height="166" viewBox="0 0 107 166" fill="none" xmlns="http://www.w3.org/2000/svg">
<path d="M95.5962 159.572C95.5962 162.656 98.0968 165.157 101.182 165.157C104.266 165.157 106.767 162.656 106.767 159.572C106.767 156.487 104.266 153.986 101.182 153.986C98.0968 153.986 95.5962 156.487 95.5962 159.572ZM0.835032 6.55713C0.835032 9.64181 3.33566 12.1424 6.42035 12.1424C9.50503 12.1424 12.0057 9.64181 12.0057 6.55713C12.0057 3.47244 9.50503 0.971812 6.42035 0.971812C3.33566 0.971812 0.835032 3.47244 0.835032 6.55713ZM101.92 158.829C65.6513 122.775 72.2556 87.8067 72.9123 59.9243C73.2398 46.0193 72.0866 33.6728 62.9158 24.1693C53.7878 14.71 36.9302 8.28988 6.51553 5.51422L6.32517 7.60004C36.6416 10.3667 52.8335 16.7374 61.4086 25.6237C69.941 34.4656 71.1447 46.0192 70.8184 59.875C70.1674 87.5144 63.4212 123.511 100.443 160.314L101.92 158.829Z" fill="#FF3F3F"/>
</svg>
