<svg width="45" height="37" viewBox="0 0 45 37" fill="none" xmlns="http://www.w3.org/2000/svg">
<path d="M39.0864 3.52271C39.0864 4.99546 40.2803 6.18937 41.7531 6.18937C43.2259 6.18937 44.4198 4.99546 44.4198 3.52271C44.4198 2.04995 43.2259 0.856038 41.7531 0.856038C40.2803 0.856038 39.0864 2.04995 39.0864 3.52271ZM0.575739 33.4339C0.575739 34.9067 1.76965 36.1006 3.24241 36.1006C4.71516 36.1006 5.90907 34.9067 5.90907 33.4339C5.90907 31.9612 4.71516 30.7673 3.24241 30.7673C1.76965 30.7673 0.575739 31.9612 0.575739 33.4339ZM41.2531 3.5227C41.2531 6.10488 40.6372 7.96005 39.6075 9.32166C38.5753 10.6866 37.0888 11.6066 35.2557 12.246C33.4185 12.8867 31.2622 13.2355 28.9255 13.4753C26.5768 13.7163 24.1199 13.8415 21.6142 14.0543C16.6665 14.4744 11.6459 15.2253 8.01329 17.9498C4.3291 20.713 2.17522 25.4164 2.74365 33.4691L3.74116 33.3987C3.18792 25.5611 5.28703 21.2445 8.61329 18.7498C11.9911 16.2165 16.7384 15.4719 21.6988 15.0507C24.1471 14.8428 26.6793 14.711 29.0276 14.47C31.3879 14.2278 33.6365 13.8697 35.585 13.1902C37.5375 12.5092 39.2173 11.4955 40.4051 9.92483C41.5954 8.35083 42.2531 6.26847 42.2531 3.52271L41.2531 3.5227Z" fill="#FF3F3F"/>
</svg>
