<svg width="93" height="75" viewBox="0 0 93 75" fill="none" xmlns="http://www.w3.org/2000/svg">
<path d="M81.5901 6.56763C81.5901 9.65231 84.0907 12.1529 87.1754 12.1529C90.2601 12.1529 92.7607 9.65231 92.7607 6.56763C92.7607 3.48294 90.2601 0.98231 87.1754 0.98231C84.0907 0.98231 81.5901 3.48294 81.5901 6.56763ZM0.929664 69.2165C0.929664 72.3012 3.4303 74.8018 6.51498 74.8018C9.59967 74.8018 12.1003 72.3012 12.1003 69.2165C12.1003 66.1318 9.59967 63.6312 6.51498 63.6312C3.4303 63.6312 0.929664 66.1318 0.929664 69.2165ZM86.1281 6.56763C86.1281 11.976 84.8381 15.8616 82.6815 18.7135C80.5196 21.5724 77.406 23.4994 73.5666 24.8384C69.7186 26.1805 65.2022 26.911 60.3081 27.4132C55.3887 27.918 50.2428 28.1803 44.9946 28.6259C34.6317 29.5058 24.1161 31.0787 16.5076 36.7851C8.79106 42.5725 4.27976 52.4239 5.47033 69.2903L7.55963 69.1428C6.40087 52.727 10.7974 43.6858 17.7643 38.4607C24.839 33.1546 34.7822 31.5951 45.1718 30.7129C50.2998 30.2775 55.6035 30.0014 60.5219 29.4967C65.4656 28.9895 70.1753 28.2394 74.2563 26.8161C78.3459 25.3898 81.8643 23.2666 84.3521 19.9768C86.8451 16.6801 88.2226 12.3186 88.2226 6.56763L86.1281 6.56763Z" fill="#FF3F3F"/>
</svg>
