<svg width="52" height="80" viewBox="0 0 52 80" fill="none" xmlns="http://www.w3.org/2000/svg">
<path d="M46.1945 76.6901C46.1945 78.1629 47.3884 79.3568 48.8612 79.3568C50.3339 79.3568 51.5278 78.1629 51.5278 76.6901C51.5278 75.2174 50.3339 74.0235 48.8612 74.0235C47.3884 74.0235 46.1945 75.2174 46.1945 76.6901ZM0.951497 3.63452C0.951497 5.10728 2.1454 6.30119 3.61816 6.30119C5.09092 6.30119 6.28483 5.10728 6.28483 3.63452C6.28483 2.16176 5.09092 0.967855 3.61816 0.967855C2.1454 0.967855 0.951497 2.16176 0.951497 3.63452ZM49.2137 76.3355C31.8975 59.1218 35.0507 42.4265 35.3642 29.1143C35.5206 22.4754 34.97 16.5807 30.5915 12.0433C26.2334 7.52706 18.1849 4.46181 3.66361 3.13659L3.57272 4.13245C18.0471 5.45339 25.7778 8.49503 29.8719 12.7377C33.9456 16.9592 34.5203 22.4754 34.3645 29.0907C34.0537 42.287 30.8328 59.4733 48.5086 77.0447L49.2137 76.3355Z" fill="#FF3F3F"/>
</svg>
