<svg width="33" height="175" viewBox="0 0 33 175" fill="none" xmlns="http://www.w3.org/2000/svg">
<path d="M21.1477 168.693C21.1477 171.778 23.6484 174.278 26.7331 174.278C29.8177 174.278 32.3184 171.778 32.3184 168.693C32.3184 165.608 29.8177 163.108 26.7331 163.108C23.6484 163.108 21.1477 165.608 21.1477 168.693ZM0.0454812 6.12622C0.0454812 9.21091 2.54611 11.7115 5.6308 11.7115C8.71548 11.7115 11.2161 9.21091 11.2161 6.12622C11.2161 3.04154 8.71548 0.540904 5.6308 0.540904C2.54611 0.540904 0.0454812 3.04154 0.0454812 6.12622ZM27.6527 168.192C14.7966 144.594 9.27537 127.832 7.62843 114.706C5.98517 101.609 8.18771 92.0552 10.9352 82.8115C13.6816 73.5717 17.025 64.5141 17.4453 52.6755C17.8665 40.8115 15.3608 26.2125 6.59367 5.71439L4.66792 6.53805C13.349 26.835 15.7597 41.1235 15.3521 52.6012C14.9437 64.1043 11.7133 72.8426 8.92756 82.2148C6.143 91.5831 3.85522 101.457 5.55023 114.967C7.24157 128.446 12.8872 145.468 25.8134 169.194L27.6527 168.192Z" fill="#FF3F3F"/>
</svg>
