<svg width="80" height="85" fill="none" xmlns="http://www.w3.org/2000/svg"><path d="M.306 81.388a2.667 2.667 0 105.334 0 2.667 2.667 0 00-5.334 0zM74.494 3.324a2.667 2.667 0 105.333 0 2.667 2.667 0 00-5.333 0zM3.463 81.489c2.128-10.35 7.736-16.151 14.99-20.104 7.309-3.982 16.22-6.06 25.015-8.986 8.753-2.911 17.323-6.648 23.694-13.952 6.38-7.317 10.499-18.144 10.499-35.123h-1c0 16.814-4.075 27.382-10.253 34.465-6.187 7.095-14.542 10.763-23.255 13.66-8.67 2.884-17.765 5.02-25.178 9.058-7.467 4.068-13.295 10.094-15.492 20.78l.98.202z" fill="#FF3F3F"/></svg>