<svg width="33" height="175" fill="none" xmlns="http://www.w3.org/2000/svg"><path d="M21.148 168.693a5.585 5.585 0 1011.17 0 5.585 5.585 0 00-11.17 0zM.045 6.126a5.585 5.585 0 1011.171 0 5.585 5.585 0 00-11.17 0zm27.608 162.066c-12.856-23.598-18.378-40.36-20.025-53.486-1.643-13.097.56-22.65 3.307-31.895 2.747-9.24 6.09-18.297 6.51-30.136.421-11.863-2.084-26.462-10.851-46.96l-1.926.823c8.681 20.297 11.092 34.586 10.684 46.063-.408 11.503-3.639 20.242-6.424 29.614-2.785 9.368-5.073 19.242-3.378 32.752 1.692 13.479 7.337 30.501 20.263 54.227l1.84-1.002z" fill="#FF3F3F"/></svg>