<svg width="45" height="37" fill="none" xmlns="http://www.w3.org/2000/svg"><path d="M39.086 3.523a2.667 2.667 0 105.334 0 2.667 2.667 0 00-5.334 0zM.576 33.433a2.667 2.667 0 105.333.001 2.667 2.667 0 00-5.333 0zm40.677-29.91c0 2.582-.616 4.437-1.645 5.799-1.033 1.365-2.52 2.285-4.352 2.924-1.837.64-3.994.99-6.33 1.23-2.35.24-4.806.365-7.312.578-4.948.42-9.968 1.171-13.6 3.896-3.685 2.763-5.839 7.466-5.27 15.52l.997-.071c-.553-7.838 1.546-12.155 4.872-14.65 3.378-2.532 8.125-3.277 13.086-3.698 2.448-.208 4.98-.34 7.329-.581 2.36-.242 4.608-.6 6.557-1.28 1.953-.68 3.632-1.694 4.82-3.265 1.19-1.574 1.848-3.657 1.848-6.402h-1z" fill="#FF3F3F"/></svg>