<svg width="45" height="96" fill="none" xmlns="http://www.w3.org/2000/svg"><path d="M38.939 92.979a2.667 2.667 0 105.333 0 2.667 2.667 0 00-5.333 0zM.255 3.44a2.667 2.667 0 105.334 0 2.667 2.667 0 00-5.334 0zm41.583 89.095c-10.5-5.514-15.104-11.254-16.935-17.344-1.845-6.138-.907-12.703-.112-20.005.792-7.268 1.426-15.194-1.163-23.862-2.592-8.677-8.396-18.047-20.382-28.264l-.648.76c11.873 10.122 17.546 19.336 20.071 27.79 2.528 8.462 1.918 16.213 1.128 23.467-.787 7.22-1.769 14.025.149 20.402 1.932 6.426 6.774 12.347 17.427 17.941l.465-.885z" fill="#FF3F3F"/></svg>