<svg width="158" height="150" fill="none" xmlns="http://www.w3.org/2000/svg"><path d="M.003 143.786a5.585 5.585 0 1011.17 0 5.585 5.585 0 00-11.17 0zM146.124 6.085a5.586 5.586 0 1011.171 0 5.586 5.586 0 00-11.171 0zM6.614 143.997c4.477-21.777 14.318-34.93 26.885-44.016 12.632-9.132 28.045-14.184 43.816-19.668 15.71-5.463 31.734-11.344 45.235-22.176 13.541-10.863 24.484-26.653 30.181-51.82l-2.043-.463c-5.6 24.741-16.305 40.105-29.449 50.65-13.184 10.577-28.88 16.36-44.612 21.83-15.672 5.45-31.42 10.6-44.355 19.95-12.999 9.398-23.128 23.009-27.71 45.291l2.052.422z" fill="#FF3F3F"/></svg>