<svg width="76" height="72" fill="none" xmlns="http://www.w3.org/2000/svg"><path d="M.355 68.503a2.667 2.667 0 105.333 0 2.667 2.667 0 00-5.333 0zM70.119 2.758a2.667 2.667 0 105.334 0 2.667 2.667 0 00-5.334 0zM3.511 68.603C5.65 58.206 10.347 51.926 16.348 47.59c6.03-4.36 13.39-6.773 20.919-9.391 7.5-2.608 15.151-5.416 21.597-10.588 6.465-5.186 11.69-12.725 14.41-24.741l-.976-.221c-2.673 11.813-7.784 19.148-14.06 24.182-6.294 5.05-13.789 7.811-21.3 10.423-7.482 2.602-15 5.06-21.176 9.525-6.207 4.487-11.043 10.986-13.23 21.624l.98.201z" fill="#FF3F3F"/></svg>