<svg width="168" height="175" fill="none" xmlns="http://www.w3.org/2000/svg"><path d="M.517 169.246a5.585 5.585 0 1011.17 0 5.585 5.585 0 00-11.17 0zM155.902 5.741a5.585 5.585 0 1011.17 0 5.585 5.585 0 00-11.17 0zM7.128 169.457c4.457-21.678 16.203-33.828 31.397-42.107 15.308-8.34 33.97-12.694 52.394-18.822 18.332-6.097 36.283-13.922 49.626-29.222 13.365-15.324 21.989-38.003 21.989-73.565h-2.094c0 35.217-8.534 57.352-21.473 72.188-12.961 14.86-30.459 22.542-48.709 28.611-18.157 6.039-37.209 10.512-52.735 18.971-15.639 8.521-27.845 21.143-32.447 43.524l2.052.422z" fill="#FF3F3F"/></svg>