<svg width="93" height="75" fill="none" xmlns="http://www.w3.org/2000/svg"><path d="M81.59 6.568a5.585 5.585 0 1011.17 0 5.585 5.585 0 00-11.17 0zM.93 69.216a5.585 5.585 0 1011.17 0 5.585 5.585 0 00-11.17 0zM86.128 6.568c0 5.408-1.29 9.294-3.447 12.146-2.161 2.858-5.275 4.785-9.114 6.124-3.848 1.342-8.365 2.073-13.259 2.575-4.92.505-10.065.767-15.313 1.213-10.363.88-20.879 2.453-28.487 8.16C8.79 42.571 4.28 52.423 5.47 69.29l2.09-.147C6.4 52.727 10.797 43.686 17.764 38.46c7.075-5.306 17.018-6.866 27.408-7.748 5.128-.436 10.431-.712 15.35-1.216 4.944-.508 9.653-1.258 13.734-2.68 4.09-1.427 7.608-3.55 10.096-6.84 2.493-3.297 3.87-7.658 3.87-13.41h-2.094z" fill="#FF3F3F"/></svg>