<svg width="93" height="200" fill="none" xmlns="http://www.w3.org/2000/svg"><path d="M81.692 194.106a5.585 5.585 0 1011.17 0 5.585 5.585 0 00-11.17 0zM.669 6.571a5.585 5.585 0 1011.17 0 5.585 5.585 0 00-11.17 0zm87.095 186.608c-21.99-11.549-31.634-23.572-35.47-36.327-3.865-12.856-1.9-26.606-.235-41.901 1.659-15.223 2.986-31.823-2.437-49.979C44.194 46.799 32.04 27.174 6.934 5.774L5.575 7.368c24.868 21.198 36.752 40.497 42.04 58.204 5.294 17.723 4.017 33.958 2.362 49.152-1.647 15.123-3.705 29.374.312 42.731 4.046 13.458 14.188 25.86 36.501 37.578l.974-1.854z" fill="#FF3F3F"/></svg>