<svg width="16" height="84" fill="none" xmlns="http://www.w3.org/2000/svg"><path d="M10.62 80.522a2.667 2.667 0 105.332 0 2.667 2.667 0 00-5.333 0zM.543 2.906a2.667 2.667 0 105.333 0 2.667 2.667 0 00-5.333 0zm13.18 77.377c-6.137-11.266-8.773-19.27-9.56-25.536-.784-6.253.267-10.815 1.58-15.228 1.31-4.411 2.907-8.736 3.107-14.388.202-5.665-.995-12.635-5.18-22.421l-.92.393c4.145 9.69 5.296 16.512 5.101 21.992-.195 5.492-1.737 9.665-3.067 14.14-1.33 4.472-2.422 9.186-1.613 15.636.808 6.436 3.503 14.563 9.675 25.89l.878-.478z" fill="#FF3F3F"/></svg>