<svg width="45" height="96" viewBox="0 0 45 96" fill="none" xmlns="http://www.w3.org/2000/svg">
<path d="M38.9388 92.9787C38.9388 94.4514 40.1327 95.6453 41.6055 95.6453C43.0782 95.6453 44.2722 94.4514 44.2722 92.9787C44.2722 91.5059 43.0782 90.312 41.6055 90.312C40.1327 90.312 38.9388 91.5059 38.9388 92.9787ZM0.255208 3.44141C0.255208 4.91417 1.44912 6.10807 2.92188 6.10807C4.39463 6.10807 5.58854 4.91417 5.58854 3.44141C5.58854 1.96865 4.39463 0.77474 2.92188 0.77474C1.44912 0.77474 0.255208 1.96865 0.255208 3.44141ZM41.838 92.536C31.3388 87.0223 26.7344 81.2819 24.9033 75.1921C23.0577 69.0542 23.9956 62.4893 24.7911 55.1868C25.5828 47.9185 26.2167 39.9933 23.6275 31.3247C21.0358 22.648 15.2324 13.2782 3.24623 3.06089L2.59752 3.82192C14.4706 13.9429 20.1443 23.1573 22.6693 31.6109C25.1968 40.0728 24.5872 47.824 23.797 55.0785C23.0105 62.2987 22.0281 69.1027 23.9457 75.4801C25.8777 81.9056 30.72 87.8269 41.373 93.4213L41.838 92.536Z" fill="#FF3F3F"/>
</svg>
