<svg width="158" height="150" viewBox="0 0 158 150" fill="none" xmlns="http://www.w3.org/2000/svg">
<path d="M0.00269556 143.786C0.00269556 146.871 2.50333 149.371 5.58801 149.371C8.6727 149.371 11.1733 146.871 11.1733 143.786C11.1733 140.701 8.6727 138.201 5.58801 138.201C2.50333 138.201 0.00269556 140.701 0.00269556 143.786ZM146.124 6.08496C146.124 9.16965 148.625 11.6703 151.709 11.6703C154.794 11.6703 157.295 9.16965 157.295 6.08496C157.295 3.00028 154.794 0.499644 151.709 0.499644C148.625 0.499644 146.124 3.00028 146.124 6.08496ZM6.6138 143.997C11.0913 122.22 20.932 109.067 33.4994 99.9815C46.1311 90.8494 61.5445 85.7966 77.3147 80.3128C93.0244 74.85 109.049 68.9688 122.55 58.1372C136.091 47.2736 147.034 31.484 152.731 6.31614L150.688 5.85378C145.088 30.5954 134.383 45.9585 121.239 56.5035C108.055 67.0806 92.3586 72.864 76.6268 78.3345C60.9553 83.7839 45.2068 88.9331 32.2723 98.2842C19.2734 107.682 9.14358 121.293 4.56222 143.575L6.6138 143.997Z" fill="#FF3F3F"/>
</svg>
