<svg width="16" height="84" viewBox="0 0 16 84" fill="none" xmlns="http://www.w3.org/2000/svg">
<path d="M10.6191 80.5225C10.6191 81.9952 11.813 83.1891 13.2858 83.1891C14.7586 83.1891 15.9525 81.9952 15.9525 80.5225C15.9525 79.0497 14.7586 77.8558 13.2858 77.8558C11.813 77.8558 10.6191 79.0497 10.6191 80.5225ZM0.544027 2.90625C0.544027 4.37901 1.73793 5.57292 3.21069 5.57292C4.68345 5.57292 5.87736 4.37901 5.87736 2.90625C5.87736 1.43349 4.68345 0.239583 3.21069 0.239583C1.73793 0.239583 0.544027 1.43349 0.544027 2.90625ZM13.7249 80.2833C7.58684 69.0169 4.95077 61.0137 4.16445 54.7467C3.37989 48.4938 4.43147 43.9324 5.74326 39.5191C7.05449 35.1076 8.65076 30.7831 8.85144 25.1308C9.05256 19.4665 7.85622 12.4963 3.67041 2.70963L2.75098 3.10287C6.89571 12.7935 8.04664 19.6154 7.85207 25.0954C7.65708 30.5874 6.11473 34.7595 4.7847 39.2341C3.45524 43.707 2.36296 48.4213 3.17223 54.8712C3.97974 61.3071 6.6752 69.4338 12.8467 80.7617L13.7249 80.2833Z" fill="#FF3F3F"/>
</svg>
