<svg width="93" height="200" viewBox="0 0 93 200" fill="none" xmlns="http://www.w3.org/2000/svg">
<path d="M81.6916 194.106C81.6916 197.19 84.1922 199.691 87.2769 199.691C90.3616 199.691 92.8622 197.19 92.8622 194.106C92.8622 191.021 90.3616 188.52 87.2769 188.52C84.1922 188.52 81.6916 191.021 81.6916 194.106ZM0.669016 6.57056C0.669016 9.65524 3.16965 12.1559 6.25433 12.1559C9.33902 12.1559 11.8397 9.65524 11.8397 6.57056C11.8397 3.48587 9.33902 0.98524 6.25433 0.98524C3.16965 0.98524 0.669016 3.48587 0.669016 6.57056ZM87.7638 193.179C65.7734 181.63 56.1296 169.607 52.2943 156.852C48.4287 143.996 50.3932 130.246 52.0593 114.951C53.7176 99.7275 55.0453 83.1282 49.6221 64.972C44.1938 46.7987 32.0387 27.1737 6.9337 5.77357L5.57496 7.36754C30.4431 28.5658 42.3265 47.8654 47.6153 65.5715C52.9091 83.2947 51.6322 99.5297 49.9771 114.724C48.3298 129.847 46.2721 144.098 50.2885 157.455C54.3352 170.913 64.4774 183.315 86.79 195.033L87.7638 193.179Z" fill="#FF3F3F"/>
</svg>
