<svg width="76" height="72" viewBox="0 0 76 72" fill="none" xmlns="http://www.w3.org/2000/svg">
<path d="M0.354818 68.5027C0.354818 69.9754 1.54873 71.1693 3.02148 71.1693C4.49424 71.1693 5.68815 69.9754 5.68815 68.5027C5.68815 67.0299 4.49424 65.836 3.02148 65.836C1.54873 65.836 0.354818 67.0299 0.354818 68.5027ZM70.1193 2.7583C70.1193 4.23106 71.3132 5.42497 72.7859 5.42497C74.2587 5.42497 75.4526 4.23106 75.4526 2.7583C75.4526 1.28554 74.2587 0.091634 72.7859 0.091634C71.3132 0.091634 70.1193 1.28554 70.1193 2.7583ZM3.51124 68.6034C5.64898 58.2062 10.3474 51.9264 16.3476 47.5885C22.3785 43.2284 29.7375 40.816 37.2668 38.1978C44.7673 35.5896 52.4181 32.7817 58.864 27.6103C65.329 22.4235 70.5539 14.8849 73.2736 2.86867L72.2983 2.64793C69.6247 14.4606 64.5137 21.7956 58.2383 26.8303C51.9437 31.8802 44.4494 34.6414 36.9384 37.2533C29.4562 39.8551 21.9372 42.3135 15.7617 46.7781C9.55548 51.2649 4.71906 57.7636 2.53173 68.402L3.51124 68.6034Z" fill="#FF3F3F"/>
</svg>
