<svg width="168" height="175" viewBox="0 0 168 175" fill="none" xmlns="http://www.w3.org/2000/svg">
<path d="M0.516673 169.246C0.516673 172.331 3.0173 174.831 6.10199 174.831C9.18668 174.831 11.6873 172.331 11.6873 169.246C11.6873 166.161 9.18668 163.661 6.10199 163.661C3.0173 163.661 0.516673 166.161 0.516673 169.246ZM155.902 5.74097C155.902 8.82565 158.402 11.3263 161.487 11.3263C164.572 11.3263 167.072 8.82565 167.072 5.74097C167.072 2.65628 164.572 0.15565 161.487 0.15565C158.402 0.15565 155.902 2.65628 155.902 5.74097ZM7.12778 169.457C11.5848 147.779 23.3311 135.629 38.5254 127.35C53.8329 119.01 72.4952 114.656 90.9192 108.528C109.251 102.431 127.202 94.6056 140.545 79.3058C153.91 63.9821 162.534 41.3034 162.534 5.74097H160.44C160.44 40.9583 151.906 63.0929 138.967 77.9292C126.006 92.7894 108.508 100.471 90.2582 106.54C72.1006 112.579 53.049 117.052 37.5233 125.511C21.8843 134.032 9.678 146.654 5.0762 169.035L7.12778 169.457Z" fill="#FF3F3F"/>
</svg>
