<svg width="80" height="85" viewBox="0 0 80 85" fill="none" xmlns="http://www.w3.org/2000/svg">
<path d="M0.306478 81.3879C0.306478 82.8606 1.50039 84.0545 2.97314 84.0545C4.4459 84.0545 5.63981 82.8606 5.63981 81.3879C5.63981 79.9151 4.4459 78.7212 2.97314 78.7212C1.50039 78.7212 0.306478 79.9151 0.306478 81.3879ZM74.4939 3.32373C74.4939 4.79649 75.6878 5.9904 77.1606 5.9904C78.6333 5.9904 79.8272 4.79649 79.8272 3.32373C79.8272 1.85097 78.6333 0.657064 77.1606 0.657064C75.6878 0.657064 74.4939 1.85097 74.4939 3.32373ZM3.4629 81.4886C5.59088 71.1389 11.199 65.3376 18.4534 61.3851C25.7619 57.403 34.6721 55.3241 43.4685 52.3986C52.2209 49.4876 60.7913 45.7515 67.162 38.4467C73.5428 31.1305 77.6606 20.3027 77.6606 3.32373H76.6606C76.6606 20.138 72.5862 30.706 66.4084 37.7894C60.2206 44.8843 51.866 48.5518 43.1529 51.4497C34.4837 54.3329 25.3876 56.4682 17.975 60.507C10.5083 64.5752 4.68048 70.6014 2.48339 81.2872L3.4629 81.4886Z" fill="#FF3F3F"/>
</svg>
